HIERARCHY
ROOT Hips
{
	OFFSET 0.000000 0.000000 0.000000 
	CHANNELS 6 Xposition Yposition Zposition Yrotation Zrotation Xrotation 
	JOINT Lumbar
	{
		OFFSET 0.000000 0.000000 0.000000 
		CHANNELS 3 Zrotation Xrotation Yrotation
		JOINT Neck
		{
			OFFSET 0.000000 0.445665 0.000000 
			CHANNELS 3 Zrotation Xrotation Yrotation
			End Site
			{
				OFFSET 0.000000 0.227535 0.000000 
			}
		}
		JOINT RightShoulder
		{
			OFFSET 0.019635 0.377685 0.194865 
			CHANNELS 3 Zrotation Xrotation Yrotation
			JOINT RightElbow
			{
				OFFSET 0.000000 -0.243375 0.000000 
				CHANNELS 2 Zrotation Yrotation
				JOINT RightWrist
				{
					OFFSET 0.000000 -0.264825 0.000000 
					CHANNELS 2 Zrotation Xrotation
					End Site
					{
						OFFSET 0.006600 -0.176220 0.000990 
					}
				}
			}
		}
		JOINT LeftShoulder
		{
			OFFSET 0.019635 0.377685 -0.194865 
			CHANNELS 3 Zrotation Xrotation Yrotation
			JOINT LeftElbow
			{
				OFFSET 0.000000 -0.243375 0.000000 
				CHANNELS 2 Zrotation Yrotation
				JOINT LeftWrist
				{
					OFFSET 0.000000 -0.264825 0.000000 
					CHANNELS 2 Zrotation Xrotation
					End Site
					{
						OFFSET 0.006600 -0.176220 -0.000990 
					}
				}
			}
		}
	}
	JOINT RightHip
	{
		OFFSET 0.052140 -0.069960 0.075570 
		CHANNELS 3 Zrotation Xrotation Yrotation
		JOINT RightKnee
		{
			OFFSET 0.000000 -0.402270 0.000000 
			CHANNELS 1 Zrotation
			JOINT RightAnkle
			{
				OFFSET 0.000000 -0.404085 0.000000 
				CHANNELS 3 Zrotation Xrotation Yrotation
				End Site
				{
					OFFSET 0.204105 -0.089430 0.008415 
				}
			}
		}
	}
	JOINT LeftHip
	{
		OFFSET 0.052140 -0.069960 -0.075570 
		CHANNELS 3 Zrotation Xrotation Yrotation
		JOINT LeftKnee
		{
			OFFSET 0.000000 -0.402270 0.000000 
			CHANNELS 1 Zrotation
			JOINT LeftAnkle
			{
				OFFSET 0.000000 -0.404085 0.000000 
				CHANNELS 3 Zrotation Xrotation Yrotation
				End Site
				{
					OFFSET 0.204105 -0.089430 -0.008415 
				}
			}
		}
	}
}
MOTION
Frames: 20
Frame Time: 0.02
-1e-05 0.95578 0 245.12372 0 -3.70863 5.83372 6.17075 0.27647 -54.79872 3.10948 6.90956 65.45978 -26.64488 4.11258 16.33109 79.74878 1.44197 -8.19534 40.297 6.34415 -0.71124 5.32817 -83.72399 0.72882 -3.96863 -3.68843 8.74091 -7.76185 -5.28696 -9.36961 -2.78374 -8.73055 11.98594 9.47933 -7.40153 -18.87778 -2.78572 2.54345 1.45735
0.00241 0.95611 -0.00325 245.80328 0 -3.67096 5.75889 6.18039 0.19566 -54.65581 3.22217 6.9487 64.51564 -26.16042 3.48711 15.6177 79.85136 1.5201 -7.52263 40.32054 6.37448 -0.68656 5.32749 -83.78507 0.67857 -3.81493 -3.45505 8.6971 -8.20682 -5.38844 -9.45624 -2.81477 -8.89388 11.73218 9.72127 -7.88001 -20.19526 -2.3641 2.82173 2.71217
0.00483 0.95643 -0.00647 246.48055 0 -3.63412 5.68493 6.19005 0.1144 -54.51296 3.33373 6.98506 63.57214 -25.67496 2.86239 14.90589 79.95585 1.59738 -6.85184 40.34661 6.4083 -0.66262 5.32866 -83.84462 0.62753 -3.66001 -3.22314 8.65356 -8.65046 -5.48911 -9.54067 -2.84571 -9.0561 11.47625 9.96433 -8.34335 -21.50137 -1.94549 3.09862 3.96228
0.00726 0.95675 -0.00966 247.15412 0 -3.59976 5.61345 6.19977 0.03124 -54.36892 3.44314 7.01414 62.62511 -25.18459 2.23403 14.1938 80.07162 1.67294 -6.18144 40.37995 6.45201 -0.63582 5.33431 -83.89938 0.57352 -3.50012 -2.99478 8.61122 -9.09274 -5.58743 -9.61677 -2.87664 -9.21507 11.2127 10.21443 -8.77116 -22.77986 -1.53162 3.37392 5.21138
0.00964 0.95711 -0.01307 247.84589 0 -3.5517 5.5285 6.20905 -0.041 -54.23115 3.56546 7.08598 61.70047 -24.72484 1.6242 13.48361 80.13081 1.75874 -5.50809 40.37103 6.43809 -0.61743 5.31268 -83.98042 0.53607 -3.36825 -2.74755 8.56319 -9.54176 -5.69805 -9.73651 -2.9077 -9.39075 10.99378 10.42755 -9.41155 -24.21079 -1.08877 3.65913 6.47258
0.01212 0.95736 -0.016 248.49941 0 -3.53305 5.47236 6.21931 -0.13685 -54.08025 3.65931 7.06447 60.72689 -24.19767 0.97631 12.76984 80.30745 1.82203 -4.84225 40.45405 6.54962 -0.58586 5.35117 -84.00519 0.46306 -3.17608 -2.5405 8.52677 -9.97638 -5.78266 -9.76416 -2.93842 -9.53128 10.67781 10.71848 -9.58517 -25.31369 -0.71029 3.92209 7.7023
0.0148 0.95728 -0.01768 249.05411 0 -3.595 5.495 6.23257 -0.29798 -53.88785 3.68294 6.79862 59.60752 -23.48892 0.19904 12.02827 80.84396 1.82915 -4.17444 40.78173 6.9937 -0.47784 5.54325 -83.87449 0.29089 -2.81552 -2.44267 8.52643 -10.37947 -5.79417 -9.52674 -2.96898 -9.57204 10.09921 11.24071 -8.56823 -25.54199 -0.48385 4.13724 8.91581
0.0176 0.95708 -0.01886 249.56971 0 -3.68689 5.54691 6.24691 -0.48307 -53.68304 3.67622 6.43562 58.43981 -22.71064 -0.61147 11.28574 81.49332 1.81247 -3.51784 41.20448 7.56747 -0.3643 5.79874 -83.68692 0.08279 -2.39393 -2.38563 8.537 -10.76705 -5.7797 -9.19859 -2.99899 -9.57791 9.42117 11.83827 -7.06256 -25.4328 -0.32712 4.32762 10.08618
0.02038 0.95694 -0.02023 250.09926 0 -3.76543 5.58595 6.26049 -0.65739 -53.48697 3.67801 6.10811 57.29923 -21.96004 -1.394 10.55411 82.0683 1.80277 -2.86979 41.58992 8.09151 -0.27854 6.0333 -83.52515 -0.10842 -2.00108 -2.31095 8.54006 -11.15675 -5.77788 -8.91798 -3.02885 -9.60148 8.7842 12.39235 -5.7128 -25.45894 -0.15469 4.52081 11.23141
0.02301 0.95678 -0.02177 250.64423 0 -3.84254 5.62311 6.2748 -0.8313 -53.27745 3.7024 5.8177 56.13555 -21.22538 -2.2373 9.77765 82.73972 1.80918 -2.16341 41.94963 8.57663 -0.08394 6.23366 -83.3633 -0.30185 -1.60435 -2.23246 8.55417 -11.56678 -5.77232 -8.60863 -3.06071 -9.61706 8.16407 12.98863 -4.63536 -25.56453 0.08609 4.74981 12.5641
0.02599 0.95664 -0.02282 251.14856 0 -3.93017 5.67118 6.28837 -1.01162 -53.09349 3.67215 5.42629 55.01037 -20.44188 -2.95373 9.09533 83.2383 1.77649 -1.58222 42.38654 9.17361 -0.11747 6.52141 -83.18848 -0.49937 -1.20081 -2.17163 8.54749 -11.9313 -5.76858 -8.34028 -3.08785 -9.64126 7.48602 13.51082 -2.88366 -25.42027 0.16679 4.89812 13.49763
0.02982 0.95663 -0.02269 251.54329 0 -4.03597 5.74176 6.29504 -1.20423 -52.97885 3.50146 4.78617 53.9869 -19.53331 -3.38066 8.66436 83.22151 1.64043 -1.33481 43.00462 10.04719 -0.75924 7.0258 -82.98864 -0.69805 -0.79631 -2.14908 8.48377 -12.16901 -5.77465 -8.1841 -3.10583 -9.69545 6.66585 13.84576 0.68493 -24.70643 -0.16614 4.83214 13.32804
0.03402 0.95665 -0.02206 251.89929 0 -4.15202 5.82234 6.30174 -1.40193 -52.89107 3.27626 4.0472 53.00717 -18.5799 -3.66493 8.3299 83.02879 1.46599 -1.21477 43.69861 11.02832 -1.63525 7.61767 -82.77846 -0.89991 -0.38634 -2.14294 8.39815 -12.36198 -5.78376 -8.07651 -3.11839 -9.75989 5.79236 14.09721 4.8989 -23.74686 -0.65891 4.68562 12.7612
0.03812 0.95666 -0.02163 252.27825 0 -4.26564 5.89873 6.31152 -1.59755 -52.79392 3.07406 3.34842 52.01778 -17.65099 -3.97059 7.95686 82.92358 1.30999 -1.04228 44.36374 11.96142 -2.41893 8.17547 -82.57485 -1.10118 0.02282 -2.1296 8.32058 -12.57916 -5.79255 -7.96212 -3.13094 -9.82127 4.94715 14.36308 8.77153 -22.87361 -1.08716 4.57399 12.38282
0.04194 0.95667 -0.02133 252.63528 0 -4.3707 5.97488 6.30851 -1.79485 -52.68473 2.87835 2.66354 50.98236 -16.69984 -4.46489 7.56099 82.79064 1.14919 -0.84689 45.00891 12.89816 -3.14216 8.71146 -82.36066 -1.29995 0.4263 -2.11668 8.25152 -12.78106 -5.79598 -7.78066 -3.15384 -9.87499 4.08005 14.72961 12.87389 -22.09103 -1.48752 4.46759 11.96626
0.04644 0.95668 -0.02064 253.02668 0 -4.49587 6.05321 6.33185 -1.98726 -52.60669 2.65649 1.93089 50.05535 -15.78829 -4.52687 7.23623 82.67189 0.98927 -0.72975 45.71179 13.84777 -4.04779 9.31287 -82.16769 -1.5044 0.84305 -2.10618 8.15928 -13.0023 -5.81159 -7.75083 -3.15398 -9.94716 3.24884 14.86728 16.63231 -21.07139 -1.97806 4.33293 11.53949
0.05272 0.95665 -0.01898 253.54476 0 -4.67195 6.1378 6.43017 -2.1843 -52.61233 2.37657 1.06205 49.40532 -14.97179 -3.47442 7.07947 82.63742 0.84405 -0.79399 46.55968 14.8348 -5.39167 10.07233 -82.02847 -1.72157 1.28673 -2.09866 8.00903 -13.30546 -5.86074 -8.13517 -3.09186 -10.07143 2.51644 14.37879 19.38696 -19.41049 -2.72078 4.12775 11.14698
0.05968 0.95661 -0.01694 254.09453 0 -4.86806 6.22356 6.55445 -2.37253 -52.64772 2.07226 0.15446 48.86598 -14.20197 -1.98451 6.99215 82.62219 0.70067 -0.93338 47.46114 15.82484 -6.91135 10.89416 -81.91261 -1.94439 1.74469 -2.09265 7.83585 -13.62625 -5.92212 -8.66939 -3.00716 -10.21345 1.82533 13.66511 21.75184 -17.53066 -3.54042 3.89925 10.76441
0.06634 0.95657 -0.01506 254.61572 0 -5.05636 6.30695 6.66554 -2.55192 -52.66667 1.77868 -0.71637 48.283 -13.42738 -0.66412 6.87576 82.59643 0.55461 -1.04039 48.33558 16.79475 -8.35747 11.68837 -81.7912 -2.16605 2.20153 -2.08568 7.67296 -13.9278 -5.97748 -9.13077 -2.93328 -10.34508 1.12412 13.06384 24.22397 -15.78252 -4.29689 3.68966 10.40057
0.07294 0.95656 -0.01321 255.1965 0 -5.24 6.39866 6.78304 -2.78558 -52.69857 1.48448 -1.67201 47.6706 -12.58082 0.54232 6.75095 82.57281 0.41478 -1.14358 49.22651 17.84899 -9.79008 12.48413 -81.64807 -2.38257 2.63662 -2.08088 7.5107 -14.276 -6.03455 -9.61426 -2.85681 -10.4867 0.38297 12.41757 27.01195 -13.88665 -5.17846 3.44247 9.92556
